<?xml version="1.0" standalone="no"?>
<!DOCTYPE svg PUBLIC "-//W3C//DTD SVG 20010904//EN"
 "http://www.w3.org/TR/2001/REC-SVG-20010904/DTD/svg10.dtd">
<svg version="1.0" xmlns="http://www.w3.org/2000/svg"
 width="2138.000000pt" height="2138.000000pt" viewBox="0 0 2138.000000 2138.000000"
 preserveAspectRatio="xMidYMid meet">
<metadata>
Created by potrace 1.14, written by Peter Selinger 2001-2017
</metadata>
<g transform="translate(0.000000,2138.000000) scale(0.100000,-0.100000)"
fill="#000000" stroke="none">
<path d="M10315 21354 c-27 -2 -122 -11 -210 -19 -1684 -160 -3228 -1038
-4247 -2415 -584 -790 -968 -1727 -1107 -2700 -54 -379 -54 -371 -58 -1657
l-4 -1203 -417 0 c-309 0 -451 -4 -547 -15 -742 -87 -1396 -464 -1841 -1061
-259 -347 -417 -720 -496 -1170 l-23 -129 0 -4300 0 -4300 27 -145 c87 -467
272 -877 554 -1230 88 -109 295 -316 404 -404 353 -282 763 -467 1230 -554
l145 -27 6970 0 6970 0 145 27 c467 87 877 272 1230 554 109 88 316 295 404
404 282 353 467 763 554 1230 l27 145 0 4300 0 4300 -23 129 c-79 450 -237
823 -496 1170 -445 597 -1099 974 -1841 1061 -96 11 -238 15 -547 15 l-417 0
-4 1203 c-4 1286 -4 1278 -58 1657 -302 2120 -1737 3935 -3734 4725 -516 204
-1024 327 -1610 391 -142 15 -846 28 -980 18z m580 -2674 c477 -32 900 -148
1310 -359 342 -175 602 -368 871 -643 498 -510 797 -1116 916 -1853 22 -138
22 -154 25 -1302 l4 -1163 -3326 0 -3326 0 4 1163 c3 1148 3 1164 25 1302 119
737 418 1343 916 1853 146 149 238 230 403 353 618 463 1414 700 2178 649z"/>
</g>
</svg>
